<svg width="128" height="128" viewBox="0 0 128 128" xmlns="http://www.w3.org/2000/svg">
  <!-- Background circle -->
  <circle cx="64" cy="64" r="64" fill="#FF8C42"/>
  
  <!-- Beaker body (Erlenmeyer flask shape: narrow neck, wide base) -->
  <path d="M 54 25 L 54 45 L 38 85 Q 38 98 48 98 L 80 98 Q 90 98 90 85 L 74 45 L 74 25 Z" fill="#FFFFFF" stroke="#CC6A2E" stroke-width="2"/>
  
  <!-- Beaker rim -->
  <rect x="52" y="20" width="24" height="5" rx="1" fill="#FFFFFF" stroke="#CC6A2E" stroke-width="2"/>
  
  <!-- Liquid inside (fills the wide base) -->
  <path d="M 56 55 L 42 82 Q 42 92 48 92 L 80 92 Q 86 92 86 82 L 72 55 Z" fill="#9E9E9E" opacity="0.7"/>
  
  <!-- Measurement lines on the neck (all same length, left-aligned) -->
  <line x1="58" y1="30" x2="64" y2="30" stroke="#CC6A2E" stroke-width="1.5"/>
  <line x1="58" y1="36" x2="64" y2="36" stroke="#CC6A2E" stroke-width="1.5"/>
  <line x1="58" y1="42" x2="64" y2="42" stroke="#CC6A2E" stroke-width="1.5"/>
  
  <!-- Bubbles in liquid -->
  <circle cx="64" cy="75" r="3"   fill="#FFFFFF" opacity="0.4"/>
  <circle cx="72" cy="80" r="2"   fill="#FFFFFF" opacity="0.4"/>
  <circle cx="56" cy="82" r="2.5" fill="#FFFFFF" opacity="0.4"/>
</svg>

